<?xml version="1.0" encoding="UTF-8"?> <!-- Generator: Adobe Illustrator 24.1.2, SVG Export Plug-In . SVG Version: 6.00 Build 0) --> <svg xmlns="http://www.w3.org/2000/svg" xmlns:xlink="http://www.w3.org/1999/xlink" id="Слой_1" x="0px" y="0px" viewBox="0 0 794.2 279.1" style="enable-background:new 0 0 794.2 279.1;" xml:space="preserve"> <style type="text/css"> .st0{fill:#D50032;} .st1{fill:#D40031;} .st2{fill:none;} </style> <g id="Слой_x0020_1"> <polygon class="st0" points="25.4,67.9 48.5,67.9 101.9,138 101.9,67.9 126.6,67.9 126.6,181.8 105.3,181.8 50.1,109.4 50.1,181.8 25.4,181.8 "></polygon> <path class="st0" d="M192.5,67.1h23.1l48.8,114.7h-26.2l-10.4-25.5h-48.2l-10.4,25.5h-25.5L192.5,67.1L192.5,67.1z M218.9,134.1 L218.9,134.1l-15.1-36.9l-15.1,36.9H218.9z"></path> <path class="st0" d="M281.5,67.9h52.1c14.5,0,25.7,4.1,33.2,11.5c6.3,6.4,9.8,15.3,9.8,26.4c0,18.4-9.9,30-24.4,35.3l27.8,40.7 h-29.3l-24.7-36.5h-19.4v36.5h-25.1L281.5,67.9L281.5,67.9z M332,123.2L332,123.2c12.2,0,19.2-6.5,19.2-16.4 c0-10.7-7.5-16.3-19.7-16.3h-24.9v32.7H332L332,123.2z"></path> <polygon class="st0" points="429.8,123.9 376.1,43.7 405.4,43.7 444.9,104.8 469,67.9 497.5,67.9 459.4,123.5 533.3,232.8 504,232.8 444.2,142.7 418.5,181.8 390.1,181.8 "></polygon> <path class="st0" d="M504.1,124.8c0-32.4,25.5-58.9,60.7-58.9s60.4,26.2,60.4,58.9c0,32.4-25.5,58.9-60.7,58.9 S504.1,157.5,504.1,124.8z M599,124.8L599,124.8c0-19.5-14.3-35.8-34.5-35.8s-34.2,16-34.2,35.8c0,19.5,14.3,35.8,34.5,35.8 S599,144.7,599,124.8z"></path> <polygon class="st0" points="637.9,162.8 700.6,89.9 639.9,89.9 639.9,67.9 732.8,67.9 732.8,86.9 670.1,159.8 732.8,159.8 732.8,181.8 637.9,181.8 "></polygon> <g id="_2174448152912"> <path class="st1" d="M25.4,216.5v-21.3h6.5v21c0,6.9,3.5,10.6,9.4,10.6c5.8,0,9.3-3.5,9.3-10.3v-21.3H57v21 c0,11-6.2,16.6-15.9,16.6C31.5,232.8,25.4,227.2,25.4,216.5z"></path> <polygon class="st1" points="78.4,195.2 84.4,195.2 104.2,220.8 104.2,195.2 110.6,195.2 110.6,232.2 105.2,232.2 84.8,205.9 84.8,232.2 78.4,232.2 "></polygon> <polygon class="st1" points="132.9,195.2 139.5,195.2 139.5,232.2 132.9,232.2 "></polygon> <polygon class="st1" points="158.6,195.2 165.8,195.2 176.9,223.7 188,195.2 195.1,195.2 179.7,232.5 174,232.5 "></polygon> <polygon class="st1" points="213.8,195.2 241.3,195.2 241.3,201 220.3,201 220.3,210.6 238.9,210.6 238.9,216.5 220.3,216.5 220.3,226.4 241.5,226.4 241.5,232.2 213.8,232.2 "></polygon> <path class="st1" d="M261.7,195.2h16.5c8.7,0,13.8,4.7,13.8,11.8c0,6.1-3.6,9.7-8.8,11.2l10,14h-7.7l-9.2-12.9h-8v12.9h-6.5 L261.7,195.2L261.7,195.2z M277.7,213.6L277.7,213.6c4.6,0,7.6-2.4,7.6-6.3c0-4-2.9-6.1-7.7-6.1h-9.5v12.4H277.7L277.7,213.6z"></path> <path class="st1" d="M309.8,226.8l3.9-4.7c3.5,3.1,7.1,4.8,11.7,4.8c4,0,6.5-1.8,6.5-4.8c0-2.6-1.5-4.1-8.4-5.7 c-7.9-1.8-12.3-4.2-12.3-11.1c0-6.3,5.3-10.7,12.6-10.7c5.4,0,9.7,1.6,13.4,4.7l-3.5,4.9c-3.3-2.5-6.7-3.8-10-3.8 c-3.8,0-6,2-6,4.5c0,2.9,1.7,4.1,8.8,5.8c7.8,1.9,11.9,4.7,11.9,10.9c0,6.9-5.4,11-13.2,11C319.6,232.7,314.3,230.8,309.8,226.8 L309.8,226.8z"></path> <polygon class="st1" points="358.9,195.2 365.4,195.2 365.4,232.2 358.9,232.2 "></polygon> <polygon class="st1" points="396.8,201.2 385.1,201.2 385.1,195.2 415.1,195.2 415.1,201.2 403.4,201.2 403.4,232.2 396.8,232.2 "></polygon> <polygon class="st1" points="445.3,217.6 430.6,195.2 438.3,195.2 448.7,211.6 459.1,195.2 466.6,195.2 451.9,217.5 451.9,232.2 445.3,232.2 "></polygon> </g> <rect x="-88.5" y="-70.2" class="st2" width="935.1" height="416.9"></rect> </g> </svg> 